<svg xmlns="http://www.w3.org/2000/svg" width="4000" height="4000" viewBox="0 0 4000 4000">
  <defs>
    <style>
      .cls-1 {
        fill: #010101;
        stroke: #000;
        stroke-width: 15px;
        fill-rule: evenodd;
      }
    </style>
  </defs>
  <path id="Logo_1" data-name="Logo 1" class="cls-1" d="M3379.38,3691H597V1309.36Q1267.905,724.741,1938.94,140C2068.99,147.786,3379.41,1271.21,3404,1384.46q-12.315,316.44-24.62,632.96V3691ZM1988.19,333.106Q1409.61,837.276,830.917,1341.55H3170.08q-6.15-5.37-12.31-10.73Q2573.04,832.012,1988.19,333.106ZM966.342,1663.39V3218.96q18.465-5.355,36.938-10.72,923.25-766.995,1846.71-1534.12Q1908.26,1668.75,966.342,1663.39ZM3022.35,2510.91v-686.6q-18.465,5.37-36.94,10.73-400.08,332.535-800.24,665.14Q2603.715,2505.55,3022.35,2510.91Zm0,868.98V2661.1H2000.5q-430.86,354-861.8,708.06Q2080.43,3374.515,3022.35,3379.89Z"/>
</svg>
